<svg width="150" height="218" viewBox="0 0 150 218" fill="none" xmlns="http://www.w3.org/2000/svg">
<path d="M34.9757 1.85185C34.9757 2.65987 38.7912 7.91203 43.3697 13.5682C48.1389 19.2244 54.8159 29.7287 58.2498 37.0009C63.4006 47.9092 64.3545 52.7573 64.5452 63.8677C64.5452 71.3419 63.5914 78.4121 62.6375 79.4221C61.3021 80.8362 57.8682 80.4322 52.1451 78.4121C41.462 74.372 12.8463 72.3519 6.3601 75.18L1.59082 77.4021H6.55087C25.0556 78.0081 46.2313 95.7846 54.0528 116.995C61.4929 138.004 61.1113 181.233 53.099 211.938C51.9544 215.776 52.9084 215.978 77.8992 215.978C100.029 215.978 103.463 215.574 102.509 212.948C101.746 211.332 99.2655 201.232 96.5948 190.727C91.0624 166.891 88.964 137.196 92.0163 121.843C96.9763 96.3906 113.001 77.2001 136.275 68.9178L144.669 65.8877L137.038 63.6657C122.921 59.6255 108.423 62.2516 99.4563 70.9379C96.2132 73.968 96.0225 73.968 96.0225 70.5339C96.0225 64.8777 109.186 24.8805 114.336 15.1842C116.816 10.3361 118.724 5.89198 118.152 5.48796C116.626 3.87192 95.6409 30.7387 91.6347 39.627C87.8193 48.3132 84.5762 51.9493 84.5762 47.5052C84.5762 43.8691 68.9329 25.2845 59.3944 17.6083C47.1852 7.91203 34.9757 0.0337982 34.9757 1.85185ZM87.4378 53.3634C92.0163 53.3634 92.207 53.7674 91.0624 61.4436C89.3455 72.3519 94.1148 78.4121 102.318 76.392L108.041 75.18L99.4563 86.8963C86.2932 105.077 83.8131 115.985 85.1485 150.73C86.2931 180.829 86.8655 185.071 90.1086 196.788C93.5424 208.706 93.5424 208.908 78.09 208.908C70.2684 208.908 63.4006 208.302 63.0191 207.292C62.4468 206.484 63.4006 194.364 65.1176 180.223C69.8868 141.034 65.6898 118.409 49.6651 94.3706C46.422 89.5224 44.3235 85.2803 44.7051 84.8763C45.0866 84.2703 49.0928 85.0783 53.6713 86.2903C60.9206 88.3104 62.0652 88.1084 65.8806 84.2703C71.2222 78.4121 73.1299 62.6556 70.0776 49.9293C66.453 35.7888 66.6438 35.5868 75.0377 44.8791C79.9977 50.3333 84.3855 53.3634 87.4378 53.3634Z" fill="url(#paint0_linear_332_769)" stroke="url(#paint1_linear_332_769)" stroke-width="3"/>
<defs>
<linearGradient id="paint0_linear_332_769" x1="73.1299" y1="1.58929" x2="73.1299" y2="215.978" gradientUnits="userSpaceOnUse">
<stop stop-color="#603F1F"/>
<stop offset="1" stop-color="#0B4539"/>
</linearGradient>
<linearGradient id="paint1_linear_332_769" x1="73.1299" y1="1.58929" x2="73.1299" y2="215.978" gradientUnits="userSpaceOnUse">
<stop stop-color="#603F1F"/>
<stop offset="1" stop-color="#0B4539"/>
</linearGradient>
</defs>
</svg>
