<svg width="19" height="22" viewBox="0 0 19 22" fill="none" xmlns="http://www.w3.org/2000/svg">
<path d="M3.24596 0.826135C1.62298 1.95904 0 5.76972 0 8.24151C0 11.6402 3.62784 18.0257 6.68287 19.8795C17.4709 26.78 22.9127 10.8163 12.7929 2.16502C10.3107 0.00220423 5.25082 -0.718736 3.24596 0.826135ZM6.68287 4.63682C6.68287 5.46075 8.40132 7.31459 10.5016 8.75647C13.6521 10.9193 14.3204 11.9492 14.3204 14.73C14.225 17.8197 14.225 17.9227 12.8884 15.9659C12.1246 14.833 11.1699 13.4941 10.5971 13.0821C6.01458 8.65348 4.77348 7.00562 4.77348 5.15177C4.77348 4.01887 5.25082 3.09195 5.72817 3.09195C6.30099 3.09195 6.68287 3.81288 6.68287 4.63682Z" fill="white"/>
</svg>
