<svg width="44" height="45" viewBox="0 0 44 45" fill="none" xmlns="http://www.w3.org/2000/svg">
<path d="M0.985453 10.4976C-2.69869 20.815 5.81872 36.5925 17.9086 41.8222C25.2765 45.0754 29.3399 45.0961 35.4352 42.1412C42.7027 38.6179 43.5512 36.7847 43.2499 28.3993C42.5692 15.6479 32.4665 3.76715 20.5552 1.29468C10.1509 -1.05527 4.17837 1.55578 0.985453 10.4976ZM29.0167 19.943C32.0085 21.3364 34.1406 25.1372 34.9778 29.8502L36.3396 37.437L31.7962 32.2458C29.184 29.2465 23.1111 25.081 18.4002 22.5304C12.9971 19.7465 9.5812 16.2837 9.291 13.2962C8.91153 8.9301 9.83809 9.04967 16.7259 13.1044C21.0907 15.5384 26.6054 18.5525 29.0167 19.943Z" fill="#B1B9B7"/>
</svg>
