<svg width="25" height="26" viewBox="0 0 25 26" fill="none" xmlns="http://www.w3.org/2000/svg">
<path d="M4.47049 0.996023C2.23524 2.36194 0 6.95638 0 9.93657C0 14.0343 4.99643 21.7331 9.20395 23.9682C24.0618 32.2879 31.5564 13.0409 17.619 2.61029C14.2004 0.00263023 7.23167 -0.86659 4.47049 0.996023ZM9.20395 5.59047C9.20395 6.58386 11.5707 8.819 14.4633 10.5574C18.8024 13.1651 19.7227 14.4068 19.7227 17.7595C19.5913 21.4848 19.5913 21.6089 17.7505 19.2496C16.6986 17.8837 15.3837 16.2694 14.5948 15.7728C8.28355 10.4333 6.57425 8.44647 6.57425 6.21134C6.57425 4.84542 7.23167 3.72786 7.8891 3.72786C8.67801 3.72786 9.20395 4.59707 9.20395 5.59047Z" fill="#017449"/>
</svg>
