<svg width="24" height="27" viewBox="0 0 24 27" fill="none" xmlns="http://www.w3.org/2000/svg">
<path d="M14.375 17.75C14.6969 17.7502 14.9588 18.0111 14.959 18.333V26.25H9.04199V18.333C9.04217 18.0111 9.30309 17.7502 9.625 17.75H14.375ZM12 0.838867C13.7571 0.838867 15.2324 2.10402 18.1826 4.63281L19.7656 5.98926C21.3978 7.38829 22.2139 8.08839 22.6484 9.0332C23.083 9.97797 23.083 11.0527 23.083 13.2021V19.917C23.083 22.902 23.0834 24.3948 22.1562 25.3223C21.2507 26.2279 19.8057 26.2485 16.959 26.249V18.333C16.9588 16.9065 15.8015 15.7502 14.375 15.75H9.625C8.19852 15.7502 7.04217 16.9065 7.04199 18.333V26.249C4.19459 26.2485 2.74945 26.228 1.84375 25.3223C0.916576 24.3948 0.916992 22.902 0.916992 19.917V13.2021C0.916992 11.0527 0.91703 9.97797 1.35156 9.0332C1.78613 8.08839 2.60217 7.38829 4.23438 5.98926L5.81738 4.63281C8.76764 2.10402 10.2429 0.838867 12 0.838867Z" fill="#484451"/>
</svg>
