<svg version="1.2" xmlns="http://www.w3.org/2000/svg" viewBox="0 0 955 682" width="955" height="682"><style></style><path  d="m477 101.4c-11.1 3.7-17 11.5-17 22.6 0 9.6 4.2 16.6 13 21.5 5.3 2.9 16.3 2.7 21.5-0.5 5.7-3.4 9.1-7.5 10.9-13 3.3-10 1-18.8-6.5-25.3-7.1-6.1-14.3-7.8-21.9-5.3z"/><path  d="m562.1 101.5c-8.8 2.9-13.6 8.5-15.6 18-2.2 10.2 2.2 19.9 11.3 25.2 3.9 2.3 5.7 2.7 11.9 2.7 6.6-0.1 7.8-0.4 12.3-3.5 7.6-5.1 10.3-10.3 10.3-19.9 0-7.1-0.3-8.2-3.4-12.9-5.6-8.6-17.2-12.7-26.8-9.6z"/><path  d="m707 112c0 0.5 1 1.5 2.2 2.1 1.2 0.7 3 2.1 4 3.3 1.6 2 1.7 7.5 1.8 87.1v85l2.4 5c4.2 9 10.6 14.1 23.6 18.6 8.7 3 24.9 3.2 33 0.4 14.3-5 20.5-11.8 29.9-32.5 2.4-5.3 8.5-13.4 12.8-16.9 5.1-4.3 15.6-9.1 19.6-9.1 1.8 0 3.8-0.5 4.5-1.2 0.9-0.9 1.2-9.3 1.2-31.5 0-31.9 0.2-33.5 4.6-37.5 1.1-0.9 3.5-2.1 5.4-2.6 2.5-0.7-6.2-1-30.5-1.1h-34l4 1.9c8 4 7.5 0.7 7.5 51.9v45.6l-4.4 5.1c-6.8 7.7-15.1 9.4-24.2 4.9-3.5-1.7-5.7-3.8-7.6-7l-2.8-4.6v-79.4-79.3l2.5-3.1c1.4-1.6 3.5-3.3 4.5-3.6 6.1-1.9-0.5-2.5-29-2.5-19.2 0-31 0.4-31 1z"/><path  d="m171.6 172.3c-1.4 1.4-2.6 3.5-2.6 4.5 0 3.1 3.8 7.1 8 8.3 2.2 0.7 4.7 2 5.6 3.1 1.6 1.7 1.6 1.9-0.1 3.8-2.2 2.5-4.4 2.5-8.4 0.3-2.4-1.4-3.3-1.5-4.3-0.5-2 2 2.2 5.3 7.5 5.9 4.1 0.5 4.9 0.2 7.7-2.5 1.6-1.7 3-3.9 3-5 0-2.6-3.7-7.2-5.8-7.2-0.9 0-3.2-0.9-5-2-2.4-1.5-3.2-2.7-3-4.3 0.2-1.8 0.9-2.2 3.8-2.1 1.9 0.1 4.5 0.5 5.8 0.9 2.5 0.8 2.8-0.2 0.9-2.9-0.8-1.1-3.1-2-5.9-2.3-4-0.5-5-0.2-7.2 2z"/><path  d="m202.7 170.6c-0.4 0.4-0.7 6.5-0.7 13.6 0 12.2 0.1 12.8 2 12.8 2 0 2-0.5 1.8-13.2-0.3-12.2-1-15.3-3.1-13.2z"/><path  d="m238.7 170.7c-0.4 0.3-0.7 3.9-0.7 8 0 5.2-0.4 7.3-1.2 7.3-0.7 0-3.8-3.4-6.7-7.5-3.3-4.6-6.2-7.5-7.3-7.5-1.6 0-1.8 1.1-1.8 12.9 0 9.4 0.3 13 1.3 13.3 3 1.2 3.7-0.4 3.7-7.8 0-5.3 0.4-7.4 1.3-7.4 0.7 0 3.5 3.4 6.2 7.5 2.8 4.1 5.6 7.5 6.3 7.5 0.6 0 1.2-0.1 1.2-0.3 0.1-0.1 0.3-5.6 0.7-12.2 0.4-9.9 0.3-12.3-0.9-13.3-0.8-0.6-1.8-0.9-2.1-0.5z"/><path  d="m265 170.8c-5.2 2.3-9 7.8-9 13.1 0 6.7 7.4 14.1 14.1 14.1 4 0 9.9-3.3 9.9-5.5 0-1.9-1.1-1.9-5.4 0.2-3 1.4-4.1 1.5-7.6 0.4-10.4-3.1-8-19.1 2.8-19.1 1.9 0 4.7 0.8 6.3 1.7 3.2 1.9 4.4 1.4 3.5-1.5-1.1-3.3-10.1-5.4-14.6-3.4z"/><path  d="m295.7 170.7c-1.3 1.2-0.8 24.8 0.5 26.1 1.2 1.2 10.4 1.7 13.2 0.6 0.9-0.3 1.6-1.2 1.6-2 0-1.4-1.5-1.8-5.8-1.4-2.8 0.2-6.2-2.6-6.2-5.2 0-2.1 4.3-4.2 6.9-3.3 2.1 0.6 4.6-1 3.7-2.4-0.4-0.6-2.2-1.1-4-1.1-3.5 0-6.6-2.5-6.6-5.2 0-2 2.1-2.8 7.5-2.8 4.5 0 6.8-1.6 4.4-3.1-1.6-1-14.3-1.2-15.2-0.2z"/><path  d="m445.6 171.9c-0.4 0.5 0.8 1.2 2.5 1.6 4.7 1.1 11.3 8.2 12.7 13.7 0.8 3.2 1.2 17.2 1.2 43.5-0.1 60.8-1.8 78.9-9.1 92.3-0.5 0.8-1.8 3.4-3 5.6-2.8 5.4-15 17.2-21.6 20.9-2.9 1.7-5.5 3.5-5.7 4.2-0.7 1.7 2.5 7.2 4.6 7.9 0.9 0.3 5.6-1.3 10.3-3.5 4.7-2.3 8.8-4.1 9-4.1 0.3 0 5.1-2.7 10.6-6 21.4-12.7 32.5-24 41.3-42 2.1-4.1 4.1-7.9 4.5-8.3 0.5-0.4 3.7 1.1 7.3 3.5 9.3 6.2 9.9 6.6 13.8 8.3 18.2 8.3 38.6 9 53.3 2.1 7-3.3 15.4-11.4 18.3-17.6 5.5-11.4 5.4-10.8 5.4-63.5v-49l3-3.7c1.7-2 3.9-4 5-4.3 1.1-0.4 1.8-1.1 1.5-1.6-0.8-1.2-64.5-1.2-64.5 0 0 0.5 1.4 1.4 3 2.1 1.7 0.7 3.9 2.5 5 4 1.9 2.7 2 4.6 2 48.3v45.5l-2.6 5.3c-3.2 6.4-8.4 11.3-14.1 13.5-5.9 2.3-20 1.5-26.4-1.4-6.7-3.2-8.4-5.3-7.3-9.9 0.5-2.1 0.9-27.2 0.9-55.8v-52l-30.2-0.3c-17.9-0.1-30.4 0.2-30.7 0.7z"/><path  d="m633 171.9c0 0.5 1.3 1.4 3 1.9 1.6 0.6 3.9 2.6 5 4.4 2 3.2 2.1 4.2 1.7 59.8-0.3 40-0.7 58.4-1.6 63-1.7 8.4-5.1 19.9-6.2 20.6-0.5 0.3-0.9 1.1-0.9 1.9 0 2.2-6.8 11.6-11.8 16.4-2.6 2.4-7.7 6.4-11.4 8.8-6.9 4.5-8.3 6.8-5.3 9.3 0.8 0.7 1.5 1.9 1.5 2.6 0 3 5.1 1.2 23-7.9 5.2-2.7 10.2-5.5 11.1-6.3 0.8-0.8 1.8-1.4 2.2-1.4 1.7 0 13-8.9 19.6-15.3 10.7-10.5 16.5-19.8 20.3-32.7 4.3-14.4 4.3-14.1 4.8-69.8 0.3-29.8 0.4-54.7 0.2-55.2-0.5-1.3-55.2-1.4-55.2-0.1z"/><path  d="m171.2 220.2c-2.8 1.4-2.5 4.2 0.5 4.6 2.1 0.3 2.2 0.9 2.5 10.5 0.3 8.8 0.5 10.2 2.1 10.5 1.6 0.3 1.7-0.6 1.5-13-0.3-12.5-0.4-13.3-2.3-13.5-1.1-0.1-3 0.3-4.3 0.9z"/><path  d="m194.6 222.1c-4.5 5.3-2.7 11.2 4.9 15.5 1.8 1 1.8 1.2 0.2 3.4-2.1 3-2.2 5-0.3 5 2.1 0 11.6-15 11.6-18.2 0-1.4-1.2-4-2.6-5.7-2.1-2.6-3.3-3.1-6.9-3.1-3.6 0-4.8 0.5-6.9 3.1zm10.4 2.1q3.9 4.3-1.2 8.1l-2.8 2.1-2.5-2.4c-3.1-2.9-3.2-6.3-0.2-8.3 3-2.2 4.3-2.1 6.7 0.5z"/><path  d="m225.7 221.3c-3.8 3.3-3.8 9.3 0.1 13 1.5 1.5 3.3 2.7 3.9 2.7 2.3 0 2.4 2.1 0.3 5-1.9 2.7-2 3.1-0.5 3.6 1.9 0.8 1.2 1.4 6.9-6.9 3.8-5.5 4.6-7.5 4.6-11.1 0-3.6-0.5-4.8-2.6-6.5-3.6-2.9-9.3-2.8-12.7 0.2zm10.3 3.2c2 2.1 2.2 2.8 1.2 4.9-2.3 5.1-8.1 5.1-10.4 0.1-1-2.2-0.8-2.9 1.2-5 1.3-1.4 3.1-2.5 4-2.5 0.9 0 2.7 1.1 4 2.5z"/><path  d="m255 221.5c-2 2.1-2.1 2.5-0.7 3.1 0.8 0.3 2.4 0.1 3.6-0.5 3-1.7 5.9-1.3 7.1 0.8 1.4 2.8 0.4 4.8-6.2 12-3.2 3.5-5.8 7-5.8 7.7 0 1.1 2 1.4 8.3 1.4 4.6 0 8.7-0.3 9-0.7 1.5-1.4-1.5-3.2-4.4-2.6-4.3 0.8-4.8-1.9-1.2-6.5 6.1-7.5 6.6-10.5 2.8-14.6-3.3-3.6-9.2-3.6-12.5-0.1z"/><path  d="m831.4 275.4c-10.6 4.9-15.7 17-12.1 28.8 2.8 9.4 16.2 18 25.4 16.3 12.3-2.3 20.6-11.9 20.7-24 0-17.3-18.1-28.5-34-21.1z"/><path  d="m156.6 327.9c-0.7 1.1 0 1.6 3.5 2.4 3 0.8 7.4 4.8 9.7 9.2 1.5 2.7 1.7 12.4 2.2 102.9l0.5 99.9 6.5 1.7c16.2 4.4 17.5 4.7 39 7 30.4 3.3 63.7-6.3 78.8-22.8 10-10.9 14.3-17.7 17.5-28 0.9-2.8 2.4-7.3 3.2-10 0.8-2.6 1.5-6.5 1.5-8.7 0-2.2 0.5-6.9 1.1-10.5 1.6-9.9-1-26.7-6.3-41-6.1-16.5-21.2-30.6-37.3-34.8-13.1-3.4-29.4-1.7-42 4.4l-6 2.9v8 8l8 0.6c9.7 0.7 14.4 2.9 21.3 10 5.2 5.3 13.2 19.8 13.2 23.9 0 1.2 0.6 3.3 1.4 4.8 2.4 5 3.8 24.4 2.6 37.7-0.6 6.6-1.7 13.3-2.4 15-0.8 1.6-2.3 5.1-3.5 7.7-7.5 17.1-25.7 22.3-44.3 12.6-10.3-5.5-9.2 6.4-9.8-105.2l-0.5-98.1-28.7-0.3c-17.2-0.1-28.9 0.1-29.2 0.7z"/><path  d="m747 355.9c-3.7 1.9-8 8.2-8 11.6 0 1.1 2.5 9.2 5.6 18 3 8.8 5.8 17.3 6.2 18.9 1.5 6.1 3.3 3.7 7.8-10.4 0.9-3 2.3-6.9 3.1-8.7 0.7-1.7 1.3-3.8 1.3-4.8 0-0.9 0.7-3 1.6-4.7 3.7-7.2 0.8-16.9-6-20.2-4.4-2.1-7.3-2-11.6 0.3z"/><path  d="m577.5 386.5c-2.7 0.7-6.7 2-8.7 2.9-5.2 2.3-15.3 11.9-17.8 17.1-1.3 2.8-2.9 4.5-3.9 4.5-1.5 0-1.7-1-1.7-7.3l0.1-7.2h-31c-30.3 0-31 0-31 2 0 1.8 0.8 2.1 8 2.5 4.4 0.3 8.6 0.9 9.3 1.3 0.9 0.6 1.2 15.1 1.2 66.8 0 64.1-0.1 66.1-2 69.9-2.4 4.6-5 6.5-10.5 7.5-3.1 0.5-3.6 0.9-2.3 1.6 2.2 1.2 73.5 0.7 72.8-0.5-0.3-0.6-1.8-1.1-3.5-1.3-3.6-0.4-7.5-3.1-9.3-6.4-0.9-1.9-1.2-15-1-59.4 0.3-54.8 0.4-57.1 2.3-60.5 3.8-6.7 13.5-18 15.4-18 0.5 0 0.9 3 0.8 6.7-0.1 10.8 4.5 18.7 13.6 23.5 5.9 3.1 16.5 3.1 22.3 0.1 4.9-2.6 11.2-9.6 12-13.3 0.3-1.4 1-3.8 1.6-5.3 1.3-3.3-0.6-13-2.9-14.8-0.7-0.6-1.3-1.7-1.3-2.5 0-1.9-8.3-8.5-12.7-10-4.7-1.7-13.1-1.6-19.8 0.1z"/><path  d="m384.5 392c-9.4 2-10.4 2.4-19.9 7.2-10 5.1-21.6 15-21.6 18.5 0 0.5-0.5 1.4-1.2 2.1-1.6 1.6-3.8 8.1-3.8 11.3 0 4.1 5.5 11.6 9.7 13 4.4 1.4 10.8 0.6 14.2-1.8 4.6-3.4 6.3-8 5.6-15-0.5-5-0.3-7.1 1.4-10.8 2.6-5.8 6.3-7.5 16.7-7.5 16 0 25.7 5.9 30.5 18.6 1.7 4.5 1.9 8.5 1.9 49.4v44.5l-2.2 1.5c-6.9 4.4-10.3 5.4-19.8 5.4-11.9 0.1-15.6-1.8-20.8-10.7-1.9-3.2-2.2-5.3-2.2-13.3 0-16.6 4.8-22 28.3-32.3 4.7-2.1 4.7-2.1 4.7-7 0-2.8-0.5-5.3-1.1-5.6-1.3-0.9-21 3.9-27.9 6.7-1.4 0.6-3.8 1.4-5.5 1.9-5.5 1.4-11 3.7-17.3 7.1-17.1 9.3-25.2 22-25.2 39.6 0 17.3 9.1 29.9 25.5 35.5 10 3.4 33.6 1.8 43.1-3 7.2-3.7 9.5-5 14.2-8.2 3-2 5.9-4 6.6-4.5 0.8-0.5 2.1-0.6 3.1-0.2 1.5 0.6 1.7 1.5 1.1 7-0.5 5.3-0.4 6.5 1 7 2.6 1 52.2 0.7 52.9-0.3 0.3-0.6-1.5-1.3-4-1.6-5.3-0.9-8.8-3.6-11-8.8-1.4-3.3-1.6-10.2-1.4-54.3 0.1-44.8-0.1-51-1.6-55.6-7.1-22-18.8-32.4-41-36.3-11.4-2-21.9-1.8-33 0.5z"/><path  d="m679.5 391.8c-3.8 1-9.5 3.1-12.5 4.7-6.1 3.4-15.6 12.5-17.7 17-0.7 1.6-1.7 3.7-2.3 4.5-0.5 0.8-3 5.9-5.5 11.2-3.9 8.2-5.7 10.8-11.6 16.2-7.4 6.9-12.3 9.6-20.4 11.6-2.7 0.6-6 1.6-7.2 2.1l-2.3 0.9v36.6c0 25.2-0.4 37.9-1.2 40.6-1.5 5-5.5 8.4-11 9.3-9.5 1.7 0.7 2.4 35.2 2.4 32.7 0.1 43.6-0.7 35.4-2.4-5-1-7.8-2.9-9.6-6.5-1.6-3.2-1.8-7.9-1.8-54.6 0-36 0.3-52.1 1.2-54.5 1.7-5.1 4.5-8.7 9.2-11.7 3.5-2.3 5.2-2.7 11.6-2.7 5.7 0 8.2 0.5 10.5 1.9 5.2 3.4 7.6 5.9 9.6 10.5 1.8 4.1 1.9 7 1.9 55.8 0 45.8-0.2 51.7-1.6 54.6-1.8 3.4-4.6 5.9-7.7 6.7-1 0.3-1.9 0.9-2 1.5-0.2 1.2 65.3 2 72.3 0.9l4.5-0.7-4.5-1.1c-6.3-1.5-9.5-4-10.8-8.4-0.8-2.5-1.1-21.9-1.2-60.4 0-31.2-0.3-58.2-0.7-60-0.8-4.4-6.4-12.7-10.5-15.8-13-9.7-34-14.1-49.3-10.2z"/><path  d="m806 394c-9 2.2-11.1 2.9-17.6 6.1-12 5.9-20.7 16.6-23.3 28.7-3.9 18.6 2.3 34.9 17.7 46.4 7 5.2 7.7 5.7 22.7 13.3 21 10.6 27.5 17.2 27.5 27.6 0 12.2-6.1 18.8-19.8 21.4-7.3 1.4-17.5 0-25.4-3.4-5.3-2.2-9.2-7.4-10-13.1-0.4-2.9-1.4-7.4-3.4-14.8-0.5-2-6.4-1.5-6.5 0.5 0 1-0.2 10-0.2 20.1-0.2 20.7-0.5 19.9 7.7 22.7 5.7 1.9 23.6 4.5 31.6 4.5 5.8 0 19.7-2.3 22.7-3.8 1-0.5 4.7-2.4 8.3-4.2 12.3-6.1 20.3-15.3 25.2-29.2 1.8-5 2.2-8.4 2.2-16.8 0-9.4-0.4-11.2-3.1-17.6-1.6-3.9-4.4-8.9-6.2-11.1-4.2-5.3-14.8-13.2-24.6-18.3-4.4-2.4-8.4-4.6-8.9-5.1-0.6-0.5-1.5-0.9-2.2-0.9-2.6 0-15.4-8.3-19.3-12.5-4.2-4.6-4.4-5.2-4.1-12 0.2-4.8 1.3-7 5.4-10.7 12.1-11 44.6-2.9 44.6 11.1 0 4.1 3.3 11.2 5 10.9 1.2-0.3 1.5-3 1.8-16.3 0.1-8.8 0-17-0.3-18.1-0.9-4-8.9-5.8-27.5-6-9.1-0.2-18.1 0.1-20 0.6z"/><path  d="m886.4 523.3c-0.9 2.4 0.1 17.2 1.1 17.2 0.6 0 1.1-1.4 1.3-3 0.4-3.8 1.5-4.9 4-4.1 1.3 0.4 2.2 1.7 2.4 3.3 0.4 3.4 2.8 4.3 2.8 1.1 0-1.3-0.5-2.9-1.1-3.5-0.9-0.9-0.9-1.9 0-4.1 1.6-3.8 1.1-7.6-1.1-8-1.4-0.3-1.6 0.3-1.1 3.1 0.4 2.9 0.1 3.7-1.6 4.6-3 1.7-4.1 0.6-4.1-4 0-3.8-1.5-5.3-2.6-2.6z"/></svg>