<svg width="29" height="30" viewBox="0 0 29 30" fill="none" xmlns="http://www.w3.org/2000/svg">
<path d="M7.6 0.785479C7.30286 0.855043 6.84572 1.04055 6.59429 1.22606C6.34286 1.41157 5.97714 1.5507 5.79429 1.5507C5.26857 1.5507 3.12 3.45215 2.36572 4.58838C1.33714 6.18838 0.97143 7.44055 0.81143 9.92171C0.628573 12.913 1.10857 15.0463 2.70857 18.3855C3.73714 20.542 4.24 21.284 5.88572 23.0695C7.6 24.9246 9.86286 26.7333 11.7143 27.7072C13.0629 28.4492 15.5314 29.1681 17.7257 29.4927C18.8 29.6319 21.7714 29.1217 22.8 28.6348C24.1714 27.9391 25.7029 26.6406 26.3886 25.5971C27.6 23.6956 27.7143 23.4406 28.08 21.4232C28.4 19.8 28.4 19.2203 28.1714 17.4348C27.8971 15.4406 26.7314 11.9159 25.9086 10.5942C25.0171 9.15649 22.8686 6.44345 21.8629 5.49273C19.5314 3.28983 16.1714 1.43476 13.4286 0.831856C12.4914 0.646349 8.60572 0.599972 7.6 0.785479ZM9.40572 7.3478C11.2571 10.4087 12.1943 11.0348 16.7886 12.2174C17.84 12.4956 19.6457 13.4695 20.3771 14.142C21.9314 15.6029 22.9143 18.2463 22.9143 20.913C22.9143 21.9333 22.8229 22.9072 22.7086 23.0695C22.3886 23.6029 21.68 23.2782 21.4286 22.4898C21.0629 21.3768 19.7371 19.4058 18.5486 18.2232C17.3829 17.0637 15.9657 16.2985 14.5486 16.0435C12.1029 15.6029 9.63429 13.7246 8.49143 11.4753C7.92 10.3391 7.14286 6.95359 7.32572 6.42026C7.46286 6.02606 7.82857 5.72461 8.17143 5.72461C8.30857 5.72461 8.85714 6.46664 9.40572 7.3478Z" fill="#484451"/>
</svg>
