<svg width="52" height="33" viewBox="0 0 52 33" fill="none" xmlns="http://www.w3.org/2000/svg">
<path d="M1.22816 0.231037C0.718831 0.565502 0.443517 0.873207 0.2095 1.3147C0.0167797 1.66254 -0.0107517 2.63918 0.00301402 8.71306C0.00301402 12.5661 0.0580769 16.0044 0.126905 16.379C0.2095 16.7402 0.30586 17.3824 0.347157 17.7838C0.40222 18.1851 0.49858 18.64 0.581174 18.7871C0.663768 18.9343 0.773894 19.2688 0.828957 19.523C1.1731 21.1552 2.49461 23.7105 3.95377 25.6102C4.62829 26.4798 7.50532 29.2893 7.72558 29.2893C7.80817 29.2893 8.09725 29.4633 8.37256 29.6773C8.64788 29.8914 9.12968 30.1991 9.46006 30.373C11.0156 31.2025 12.048 31.6975 12.1994 31.6975C12.282 31.6975 12.5298 31.7778 12.7501 31.8848C13.8376 32.4066 16.3154 32.8882 18.4353 32.9685C20.9269 33.0889 23.1294 32.8614 24.6987 32.3397C24.9327 32.2728 25.2631 32.1791 25.4558 32.139C25.7862 32.0855 26.3506 31.858 27.149 31.4834C27.3692 31.3764 27.617 31.2961 27.7272 31.2961C27.8235 31.2961 27.9749 31.2025 28.0713 31.0955C28.1677 30.9884 28.3191 30.8948 28.4292 30.8948C28.5256 30.8948 28.8835 30.7075 29.2138 30.4934C29.558 30.266 29.8884 30.0921 29.971 30.0921C30.0398 30.0921 30.1362 29.9984 30.1912 29.8914C30.2325 29.7844 30.3289 29.6907 30.4252 29.6907C30.673 29.6907 31.6091 28.9281 33.082 27.5367C34.376 26.3193 34.4861 26.2524 34.8027 26.3862C35.0092 26.4665 35.257 26.6136 35.3809 26.7073C35.491 26.8009 35.6975 26.8812 35.8076 26.8812C35.9315 26.8812 36.0967 26.9748 36.1931 27.0819C36.2894 27.1889 36.4821 27.2826 36.6336 27.2826C36.785 27.2826 37.0328 27.3494 37.198 27.4431C37.3631 27.5234 38.2029 27.6973 39.0426 27.8311C40.2264 28.005 40.7908 28.0318 41.4516 27.9381C41.9334 27.8712 42.6354 27.7776 43.0071 27.724C43.3925 27.6839 43.8193 27.5635 43.9707 27.4699C44.1221 27.3628 44.3561 27.2826 44.4938 27.2826C44.7278 27.2826 45.1683 27.0953 45.8291 26.734C45.9392 26.6671 46.1319 26.5735 46.242 26.52C46.6688 26.3327 48.4032 25.0082 48.9401 24.4463C49.243 24.1252 49.6284 23.6436 49.7936 23.376C49.9725 23.1084 50.1515 22.8676 50.2066 22.8409C50.3442 22.7873 50.7847 21.9445 50.7847 21.7304C50.7847 21.6368 50.8673 21.4896 50.9774 21.4094C51.0876 21.3291 51.1977 21.0883 51.239 20.8876C51.2665 20.6869 51.3629 20.3391 51.4455 20.125C52.0099 18.5731 52.1613 16.66 51.8171 15.3087C51.707 14.8672 51.6244 14.3455 51.6107 14.1448C51.6107 13.9441 51.5143 13.5561 51.3904 13.2752C50.8398 12.0176 50.7434 11.8169 50.6333 11.6296C50.5645 11.5226 50.4681 11.3353 50.413 11.2282C50.0138 10.3586 48.1968 8.53914 46.9028 7.73643C44.9481 6.5056 43.6816 6.131 41.0799 6.02397L39.1527 5.9437L39.0839 3.80312C39.0426 2.6258 38.96 1.54214 38.8911 1.39497C38.6709 0.940102 38.2717 0.485229 37.8312 0.231037C37.4457 0.00360107 36.5785 -0.00977707 19.4953 0.00360107C2.86628 0.00360107 1.54477 0.0169792 1.22816 0.231037ZM34.2659 10.2382C34.2659 15.8974 34.2659 15.9509 33.6189 18.1851C33.3023 19.2688 32.7654 20.4595 32.201 21.3291C32.0083 21.6234 31.8293 21.9311 31.788 22.0248C31.4852 22.7338 28.8284 25.3025 27.562 26.1052C26.5708 26.7474 24.6161 27.6839 24.2995 27.6839C24.1894 27.6839 23.9278 27.7776 23.7213 27.8846C23.5011 27.9916 23.1707 28.0853 22.978 28.0853C22.7853 28.0853 22.331 28.1789 21.9593 28.2859C21.1609 28.5268 17.981 28.5535 17.1276 28.3395C16.8247 28.2592 16.3291 28.1522 16.0263 28.0986C15.7235 28.0451 15.338 27.9247 15.1728 27.8445C15.0076 27.7508 14.7736 27.6839 14.6635 27.6839C14.3469 27.6839 11.5524 26.3461 11.5524 26.1989C11.5524 26.132 11.4836 26.0785 11.401 26.0785C10.9605 26.0785 8.27621 23.6034 7.47779 22.4395C6.83081 21.5298 5.77085 19.5497 5.77085 19.2554C5.77085 19.135 5.67449 18.9209 5.56436 18.7738C5.45423 18.64 5.35787 18.3724 5.35787 18.1851C5.35787 17.9978 5.24775 17.5831 5.12386 17.2486C4.93114 16.7402 4.88984 15.8171 4.83478 10.9339C4.80725 7.78994 4.80725 5.11422 4.86231 5.00719C4.93114 4.83327 6.65185 4.80651 19.6054 4.80651H34.2659V10.2382ZM41.7544 10.7065C42.2224 10.8001 42.9933 11.0543 43.4751 11.2818C44.4663 11.75 45.8704 12.9808 46.1732 13.6498C46.2971 13.904 46.4347 14.1983 46.5036 14.3053C46.9716 15.0947 47.068 15.5763 47.068 17.0881C47.068 18.2119 47.0129 18.7604 46.8615 19.0413C46.7514 19.242 46.655 19.5096 46.655 19.6166C46.655 19.7236 46.4485 20.125 46.187 20.4996C45.0444 22.1719 43.4063 23.1753 41.5617 23.3091C39.9373 23.4429 38.368 23.1753 37.4733 22.6C37.1016 22.3726 37.0878 22.2254 37.3494 21.7037C37.7211 20.9679 37.9826 20.3123 37.9826 20.0849C37.9826 19.9645 38.079 19.6835 38.1891 19.4695C38.2992 19.2688 38.3956 18.9343 38.3956 18.7336C38.3956 18.533 38.4919 18.1048 38.6021 17.7704C38.7397 17.3556 38.8361 16.2318 38.9049 14.0377L39.015 10.9072L39.6345 10.7466C40.4467 10.5326 40.7633 10.5326 41.7544 10.7065Z" fill="#017449"/>
</svg>
