<svg width="198" height="73" viewBox="0 0 198 73" fill="none" xmlns="http://www.w3.org/2000/svg">
<g filter="url(#filter0_d_189_1041)">
<rect y="4" width="190" height="65" rx="10" fill="white"/>
</g>
<path d="M18.577 34V20.567H23.422C24.4227 20.567 25.284 20.7253 26.006 21.042C26.7407 21.3587 27.3043 21.8527 27.697 22.524C28.0897 23.1827 28.286 24.0377 28.286 25.089C28.286 26.1023 28.058 26.951 27.602 27.635C27.1587 28.319 26.5507 28.8383 25.778 29.193C25.0053 29.535 24.125 29.706 23.137 29.706H20.591V34H18.577ZM20.591 27.882H23.061C24.0237 27.882 24.7963 27.6603 25.379 27.217C25.9617 26.761 26.253 26.0327 26.253 25.032C26.253 24.158 26.0123 23.5057 25.531 23.075C25.0497 22.6317 24.3213 22.41 23.346 22.41H20.591V27.882ZM30.3132 34V23.987H32.2702V34H30.3132ZM31.2822 22.657C30.9022 22.657 30.5919 22.543 30.3512 22.315C30.1232 22.0743 30.0092 21.7703 30.0092 21.403C30.0092 21.0357 30.1295 20.738 30.3702 20.51C30.6109 20.2693 30.9149 20.149 31.2822 20.149C31.6242 20.149 31.9219 20.2693 32.1752 20.51C32.4412 20.738 32.5742 21.0357 32.5742 21.403C32.5742 21.7703 32.4475 22.0743 32.1942 22.315C31.9535 22.543 31.6495 22.657 31.2822 22.657ZM39.0431 34.114C37.9918 34.114 37.1115 33.8987 36.4021 33.468C35.7055 33.0373 35.1798 32.442 34.8251 31.682C34.4831 30.9093 34.3121 30.0227 34.3121 29.022C34.3121 28.034 34.4895 27.1537 34.8441 26.381C35.2115 25.5957 35.7561 24.9813 36.4781 24.538C37.2128 24.082 38.1185 23.854 39.1951 23.854C39.9298 23.854 40.5821 23.9807 41.1521 24.234C41.7221 24.4747 42.1845 24.8357 42.5391 25.317C42.9065 25.7857 43.1471 26.3747 43.2611 27.084H41.3041C41.1395 26.5647 40.8608 26.191 40.4681 25.963C40.0881 25.735 39.6385 25.621 39.1191 25.621C38.4225 25.621 37.8651 25.7857 37.4471 26.115C37.0418 26.4443 36.7441 26.8687 36.5541 27.388C36.3641 27.9073 36.2691 28.452 36.2691 29.022C36.2691 29.6173 36.3641 30.1683 36.5541 30.675C36.7568 31.1817 37.0608 31.5933 37.4661 31.91C37.8841 32.214 38.4288 32.366 39.1001 32.366C39.6068 32.366 40.0755 32.2583 40.5061 32.043C40.9368 31.815 41.2155 31.435 41.3421 30.903H43.3561C43.2421 31.6377 42.9761 32.2457 42.5581 32.727C42.1401 33.1957 41.6208 33.544 41.0001 33.772C40.3921 34 39.7398 34.114 39.0431 34.114ZM45.2497 34V20.567H47.2067V28.148H48.8217L51.6337 23.987H53.8377L50.5507 28.756L54.1227 34H51.8237L48.9737 29.877H47.2067V34H45.2497ZM55.5136 29.478V27.692H61.5936V29.478H55.5136ZM68.4139 34.114C67.0079 34.114 65.9312 33.7467 65.1839 33.012C64.4492 32.2647 64.0819 31.131 64.0819 29.611V23.987H66.0389V29.497C66.0389 30.0923 66.1212 30.6053 66.2859 31.036C66.4632 31.4667 66.7292 31.796 67.0839 32.024C67.4385 32.252 67.8882 32.366 68.4329 32.366C69.0029 32.366 69.4589 32.252 69.8009 32.024C70.1555 31.7833 70.4089 31.4477 70.5609 31.017C70.7255 30.5863 70.8079 30.0797 70.8079 29.497V23.987H72.7649V29.611C72.7649 31.1563 72.3849 32.2963 71.6249 33.031C70.8775 33.753 69.8072 34.114 68.4139 34.114ZM75.1228 37.648V23.987H76.9848L77.0798 25.412C77.4344 24.8927 77.8968 24.5063 78.4668 24.253C79.0368 23.987 79.6574 23.854 80.3288 23.854C81.3294 23.854 82.1528 24.082 82.7988 24.538C83.4448 24.9813 83.9261 25.5957 84.2428 26.381C84.5594 27.1537 84.7178 28.0213 84.7178 28.984C84.7178 29.972 84.5531 30.8523 84.2238 31.625C83.9071 32.3977 83.4131 33.0057 82.7418 33.449C82.0831 33.8923 81.2471 34.114 80.2338 34.114C79.7524 34.114 79.3091 34.0633 78.9038 33.962C78.5111 33.8607 78.1628 33.715 77.8588 33.525C77.5674 33.3223 77.3078 33.088 77.0798 32.822V37.648H75.1228ZM79.9868 32.366C80.6708 32.366 81.2154 32.214 81.6208 31.91C82.0261 31.5933 82.3174 31.1817 82.4948 30.675C82.6721 30.1683 82.7608 29.6173 82.7608 29.022C82.7608 28.4013 82.6658 27.8377 82.4758 27.331C82.2984 26.8117 82.0008 26.4 81.5828 26.096C81.1774 25.7793 80.6328 25.621 79.9488 25.621C79.3281 25.621 78.8024 25.7793 78.3718 26.096C77.9411 26.4 77.6118 26.8117 77.3838 27.331C77.1684 27.8503 77.0608 28.414 77.0608 29.022C77.0608 29.6427 77.1621 30.2127 77.3648 30.732C77.5801 31.2387 77.9031 31.6377 78.3338 31.929C78.7771 32.2203 79.3281 32.366 79.9868 32.366ZM19.128 58V49.735H17.532V47.987H19.128V46.98C19.128 46.22 19.2357 45.6057 19.451 45.137C19.679 44.6557 20.0273 44.301 20.496 44.073C20.9773 43.845 21.6043 43.731 22.377 43.731H23.688V45.46H22.605C22.2123 45.46 21.902 45.5297 21.674 45.669C21.4587 45.7957 21.3067 45.992 21.218 46.258C21.1293 46.5113 21.085 46.8217 21.085 47.189V47.987H23.688V49.735H21.085V58H19.128ZM25.2663 58V47.987H27.1093L27.2043 49.431C27.4577 49.0383 27.749 48.728 28.0783 48.5C28.4077 48.272 28.7687 48.1073 29.1613 48.006C29.554 47.9047 29.9657 47.854 30.3963 47.854C30.5103 47.854 30.618 47.854 30.7193 47.854C30.8207 47.854 30.9157 47.854 31.0043 47.854V49.735H30.3963C29.6743 49.735 29.0727 49.8807 28.5913 50.172C28.1227 50.4633 27.7743 50.8687 27.5463 51.388C27.331 51.9073 27.2233 52.5027 27.2233 53.174V58H25.2663ZM36.7636 58.114C35.7249 58.114 34.8446 57.905 34.1226 57.487C33.4006 57.0563 32.8496 56.4547 32.4696 55.682C32.1022 54.9093 31.9186 54.0163 31.9186 53.003C31.9186 51.977 32.1086 51.084 32.4886 50.324C32.8686 49.5513 33.4196 48.9497 34.1416 48.519C34.8636 48.0757 35.7439 47.854 36.7826 47.854C37.8212 47.854 38.7016 48.0757 39.4236 48.519C40.1456 48.9497 40.6902 49.5513 41.0576 50.324C41.4249 51.0967 41.6086 51.996 41.6086 53.022C41.6086 54.0227 41.4186 54.9093 41.0386 55.682C40.6712 56.4547 40.1266 57.0563 39.4046 57.487C38.6952 57.905 37.8149 58.114 36.7636 58.114ZM36.7636 56.366C37.4476 56.366 37.9986 56.214 38.4166 55.91C38.8472 55.606 39.1639 55.2007 39.3666 54.694C39.5692 54.1747 39.6706 53.611 39.6706 53.003C39.6706 52.395 39.5692 51.8377 39.3666 51.331C39.1639 50.8243 38.8472 50.419 38.4166 50.115C37.9986 49.7983 37.4476 49.64 36.7636 49.64C36.0922 49.64 35.5412 49.7983 35.1106 50.115C34.6799 50.419 34.3632 50.8243 34.1606 51.331C33.9706 51.8377 33.8756 52.395 33.8756 53.003C33.8756 53.6237 33.9706 54.1873 34.1606 54.694C34.3632 55.2007 34.6799 55.606 35.1106 55.91C35.5412 56.214 36.0922 56.366 36.7636 56.366ZM43.6169 58V47.987H45.4599L45.5739 49.165C45.8019 48.8357 46.0553 48.5823 46.3339 48.405C46.6253 48.215 46.9356 48.0757 47.2649 47.987C47.5943 47.8983 47.9299 47.854 48.2719 47.854C48.9433 47.854 49.4943 47.9933 49.9249 48.272C50.3683 48.5507 50.7103 48.9307 50.9509 49.412C51.1916 49.07 51.4639 48.785 51.7679 48.557C52.0719 48.3163 52.4076 48.139 52.7749 48.025C53.1423 47.911 53.5349 47.854 53.9529 47.854C54.7003 47.854 55.3019 48.0187 55.7579 48.348C56.2266 48.6647 56.5623 49.0953 56.7649 49.64C56.9803 50.1847 57.0879 50.8117 57.0879 51.521V58H55.1119V52.3C55.1119 51.996 55.0993 51.692 55.0739 51.388C55.0486 51.084 54.9726 50.799 54.8459 50.533C54.7319 50.2543 54.5609 50.0327 54.3329 49.868C54.1176 49.6907 53.8073 49.602 53.4019 49.602C53.0093 49.602 52.6799 49.6907 52.4139 49.868C52.1606 50.0453 51.9516 50.286 51.7869 50.59C51.6349 50.8813 51.5209 51.198 51.4449 51.54C51.3816 51.882 51.3499 52.224 51.3499 52.566V58H49.3739V52.281C49.3739 51.9897 49.3613 51.692 49.3359 51.388C49.3106 51.084 49.2473 50.799 49.1459 50.533C49.0446 50.2543 48.8736 50.0327 48.6329 49.868C48.4049 49.6907 48.0946 49.602 47.7019 49.602C47.1319 49.602 46.6886 49.7667 46.3719 50.096C46.0679 50.4127 45.8589 50.8053 45.7449 51.274C45.6309 51.73 45.5739 52.167 45.5739 52.585V58H43.6169ZM68.3453 58.114C67.8766 58.114 67.4079 58.0697 66.9393 57.981C66.4706 57.8923 66.0336 57.734 65.6283 57.506C65.2229 57.278 64.8809 56.974 64.6023 56.594C64.3236 56.2013 64.1463 55.72 64.0703 55.15H66.0653C66.1666 55.454 66.3439 55.701 66.5973 55.891C66.8633 56.081 67.1546 56.2203 67.4713 56.309C67.8006 56.3977 68.1236 56.442 68.4403 56.442C68.6303 56.442 68.8393 56.4293 69.0673 56.404C69.3079 56.3787 69.5359 56.3217 69.7513 56.233C69.9666 56.1443 70.1439 56.0177 70.2833 55.853C70.4226 55.6757 70.4923 55.4413 70.4923 55.15C70.4923 54.922 70.4289 54.732 70.3023 54.58C70.1883 54.428 70.0236 54.3077 69.8083 54.219C69.6056 54.1177 69.3586 54.0417 69.0673 53.991C68.4973 53.8643 67.8829 53.744 67.2243 53.63C66.5783 53.5033 66.0083 53.288 65.5143 52.984C65.3369 52.87 65.1786 52.7433 65.0393 52.604C64.8999 52.452 64.7796 52.281 64.6783 52.091C64.5769 51.901 64.5009 51.6983 64.4503 51.483C64.3996 51.2677 64.3743 51.0333 64.3743 50.78C64.3743 50.2607 64.4756 49.8173 64.6783 49.45C64.8936 49.0827 65.1849 48.785 65.5523 48.557C65.9196 48.3163 66.3376 48.139 66.8063 48.025C67.2749 47.911 67.7689 47.854 68.2883 47.854C68.9596 47.854 69.5676 47.9617 70.1123 48.177C70.6569 48.3923 71.1066 48.709 71.4613 49.127C71.8159 49.545 72.0249 50.0707 72.0883 50.704H70.2453C70.1693 50.362 69.9476 50.0897 69.5803 49.887C69.2256 49.6717 68.7759 49.564 68.2313 49.564C68.0413 49.564 67.8323 49.5767 67.6043 49.602C67.3889 49.6273 67.1799 49.6843 66.9773 49.773C66.7746 49.8617 66.6099 49.9883 66.4833 50.153C66.3566 50.305 66.2933 50.5077 66.2933 50.761C66.2933 51.0017 66.3503 51.2043 66.4643 51.369C66.5909 51.5337 66.7683 51.6667 66.9963 51.768C67.2369 51.8693 67.5093 51.9517 67.8133 52.015C68.2439 52.1163 68.7063 52.2113 69.2003 52.3C69.7069 52.3887 70.1186 52.4837 70.4353 52.585C70.8533 52.699 71.2079 52.8637 71.4993 53.079C71.8033 53.2943 72.0313 53.5667 72.1833 53.896C72.3479 54.2253 72.4303 54.6243 72.4303 55.093C72.4303 55.701 72.3099 56.2013 72.0693 56.594C71.8286 56.974 71.5056 57.278 71.1003 57.506C70.7076 57.734 70.2643 57.8923 69.7703 57.981C69.2889 58.0697 68.8139 58.114 68.3453 58.114ZM78.1638 58.114C77.0872 58.114 76.3145 57.8227 75.8458 57.24C75.3898 56.6447 75.1618 55.815 75.1618 54.751V49.735H73.5658V47.987H75.1618V45.08H77.1188V47.987H80.1778V49.735H77.1188V54.428C77.1188 54.7827 77.1505 55.1057 77.2138 55.397C77.2898 55.6883 77.4292 55.9163 77.6318 56.081C77.8345 56.2457 78.1258 56.3343 78.5058 56.347C78.7972 56.347 79.0505 56.2963 79.2658 56.195C79.4938 56.0937 79.6775 55.9797 79.8168 55.853L80.5768 57.316C80.3362 57.506 80.0828 57.6643 79.8168 57.791C79.5635 57.905 79.2975 57.9873 79.0188 58.038C78.7402 58.0887 78.4552 58.114 78.1638 58.114ZM86.453 58.114C85.4143 58.114 84.534 57.905 83.812 57.487C83.09 57.0563 82.539 56.4547 82.159 55.682C81.7917 54.9093 81.608 54.0163 81.608 53.003C81.608 51.977 81.798 51.084 82.178 50.324C82.558 49.5513 83.109 48.9497 83.831 48.519C84.553 48.0757 85.4333 47.854 86.472 47.854C87.5107 47.854 88.391 48.0757 89.113 48.519C89.835 48.9497 90.3797 49.5513 90.747 50.324C91.1143 51.0967 91.298 51.996 91.298 53.022C91.298 54.0227 91.108 54.9093 90.728 55.682C90.3607 56.4547 89.816 57.0563 89.094 57.487C88.3847 57.905 87.5043 58.114 86.453 58.114ZM86.453 56.366C87.137 56.366 87.688 56.214 88.106 55.91C88.5367 55.606 88.8533 55.2007 89.056 54.694C89.2587 54.1747 89.36 53.611 89.36 53.003C89.36 52.395 89.2587 51.8377 89.056 51.331C88.8533 50.8243 88.5367 50.419 88.106 50.115C87.688 49.7983 87.137 49.64 86.453 49.64C85.7817 49.64 85.2307 49.7983 84.8 50.115C84.3693 50.419 84.0527 50.8243 83.85 51.331C83.66 51.8377 83.565 52.395 83.565 53.003C83.565 53.6237 83.66 54.1873 83.85 54.694C84.0527 55.2007 84.3693 55.606 84.8 55.91C85.2307 56.214 85.7817 56.366 86.453 56.366ZM93.3064 58V47.987H95.1494L95.2444 49.431C95.4977 49.0383 95.789 48.728 96.1184 48.5C96.4477 48.272 96.8087 48.1073 97.2014 48.006C97.594 47.9047 98.0057 47.854 98.4364 47.854C98.5504 47.854 98.658 47.854 98.7594 47.854C98.8607 47.854 98.9557 47.854 99.0444 47.854V49.735H98.4364C97.7144 49.735 97.1127 49.8807 96.6314 50.172C96.1627 50.4633 95.8144 50.8687 95.5864 51.388C95.371 51.9073 95.2634 52.5027 95.2634 53.174V58H93.3064ZM104.747 58.114C103.695 58.114 102.815 57.8987 102.106 57.468C101.396 57.0373 100.858 56.442 100.491 55.682C100.136 54.9093 99.9586 54.0227 99.9586 53.022C99.9586 52.0087 100.142 51.1157 100.51 50.343C100.89 49.5703 101.434 48.9623 102.144 48.519C102.866 48.0757 103.733 47.854 104.747 47.854C105.519 47.854 106.191 47.9997 106.761 48.291C107.331 48.5697 107.799 48.9497 108.167 49.431C108.547 49.9123 108.825 50.4507 109.003 51.046C109.18 51.6287 109.256 52.2367 109.231 52.87C109.231 53.0093 109.224 53.1423 109.212 53.269C109.199 53.3957 109.186 53.5287 109.174 53.668H101.935C101.973 54.1747 102.099 54.637 102.315 55.055C102.543 55.473 102.859 55.8087 103.265 56.062C103.67 56.3027 104.17 56.423 104.766 56.423C105.095 56.423 105.412 56.385 105.716 56.309C106.032 56.2203 106.311 56.0873 106.552 55.91C106.805 55.72 106.982 55.4793 107.084 55.188H109.06C108.895 55.8593 108.597 56.4167 108.167 56.86C107.749 57.2907 107.236 57.6073 106.628 57.81C106.032 58.0127 105.405 58.114 104.747 58.114ZM101.973 52.11H107.293C107.28 51.616 107.166 51.179 106.951 50.799C106.735 50.4063 106.438 50.1023 106.058 49.887C105.678 49.659 105.222 49.545 104.69 49.545C104.107 49.545 103.619 49.6653 103.227 49.906C102.847 50.1467 102.549 50.4633 102.334 50.856C102.131 51.236 102.011 51.654 101.973 52.11Z" fill="#017449"/>
<defs>
<filter id="filter0_d_189_1041" x="0" y="0" width="198" height="73" filterUnits="userSpaceOnUse" color-interpolation-filters="sRGB">
<feFlood flood-opacity="0" result="BackgroundImageFix"/>
<feColorMatrix in="SourceAlpha" type="matrix" values="0 0 0 0 0 0 0 0 0 0 0 0 0 0 0 0 0 0 127 0" result="hardAlpha"/>
<feOffset dx="4"/>
<feGaussianBlur stdDeviation="2"/>
<feComposite in2="hardAlpha" operator="out"/>
<feColorMatrix type="matrix" values="0 0 0 0 0 0 0 0 0 0 0 0 0 0 0 0 0 0 0.25 0"/>
<feBlend mode="normal" in2="BackgroundImageFix" result="effect1_dropShadow_189_1041"/>
<feBlend mode="normal" in="SourceGraphic" in2="effect1_dropShadow_189_1041" result="shape"/>
</filter>
</defs>
</svg>
