<svg width="42" height="46" viewBox="0 0 42 46" fill="none" xmlns="http://www.w3.org/2000/svg">
<path d="M8.15878 1.9378C4.52446 4.30342 0.890137 12.2605 0.890137 17.4219C0.890137 24.5187 9.01391 37.8523 15.855 41.7233C40.0125 56.1321 52.1982 22.7983 29.5371 4.73353C23.9788 0.217339 12.6482 -1.28806 8.15878 1.9378ZM15.855 9.89489C15.855 11.6153 19.7031 15.4864 24.4063 18.4972C31.4612 23.0134 32.9577 25.1639 32.9577 30.9704C32.7439 37.4222 32.7439 37.6372 29.7509 33.5511C28.0407 31.1855 25.9028 28.3898 24.6201 27.5295C14.3585 18.2821 11.5793 14.8412 11.5793 10.9702C11.5793 8.60455 12.6482 6.66904 13.7172 6.66904C14.9999 6.66904 15.855 8.17444 15.855 9.89489Z" fill="#B1B9B7"/>
</svg>
