<svg width="24" height="35" viewBox="0 0 24 35" fill="none" xmlns="http://www.w3.org/2000/svg">
<path d="M6.17716 3.77686C-0.877699 9.58339 -1.94662 21.4115 3.82554 28.7234C9.38391 35.6053 13.0182 36.0354 18.7904 30.2288C21.5696 27.4331 23.0661 23.132 23.0661 17.3254C23.0661 11.5189 21.5696 7.21777 18.7904 4.42203C13.6596 -0.73933 11.9493 -0.954384 6.17716 3.77686ZM14.3009 9.15328C14.0871 10.6587 14.5147 14.7448 15.5836 17.9706C16.8663 22.7019 16.225 25.0675 13.4458 27.6482C10.0253 31.0891 9.81148 31.0891 11.0942 26.5729C11.9493 23.9922 11.5217 19.9061 10.4528 17.5405C7.88743 13.0243 9.38391 6.5726 12.8044 6.5726C13.8734 6.5726 14.5147 7.86294 14.3009 9.15328Z" fill="#B1B9B7"/>
</svg>
