<svg width="33" height="43" viewBox="0 0 33 43" fill="none" xmlns="http://www.w3.org/2000/svg">
<path d="M8.05335 7.19428C0.143357 15.1514 -1.56691 24.8289 3.35011 35.3667C8.90848 47.84 24.9423 42.6786 30.2868 26.5494C33.4936 16.8718 32.4247 10.2051 26.4387 4.18348C20.4528 -1.8381 16.3909 -1.19294 8.05335 7.19428ZM21.0941 17.7321C21.0941 28.915 17.8874 36.442 13.1842 36.442C11.9015 36.442 12.1152 34.9366 13.6117 33.2161C15.322 31.2806 15.7496 27.1946 14.6806 22.2482C13.6117 16.4417 14.2531 13.4309 17.0323 10.4201C18.9563 8.26956 20.8804 6.33405 20.8804 6.33405C21.0941 6.33405 21.0941 11.4954 21.0941 17.7321Z" fill="#B1B9B7"/>
</svg>
