<svg width="35" height="39" viewBox="0 0 35 39" fill="none" xmlns="http://www.w3.org/2000/svg">
<path d="M4.11321 4.10271C-6.78975 15.0706 5.60969 38.5118 22.2848 38.5118C30.8362 38.5118 34.0429 35.0709 34.0429 26.2535C34.0429 16.3609 28.9121 6.89845 21.2159 3.02742C12.8783 -1.27371 9.24401 -1.05865 4.11321 4.10271ZM21.8572 17.6513C25.7053 20.232 27.6294 23.2428 27.6294 26.8987V32.4902L21.4297 26.4686C18.0091 23.0277 13.7335 18.9416 11.8094 17.4362C9.88536 15.9308 8.38888 12.4899 8.38888 9.90924V5.17799L12.237 9.69418C14.161 12.0598 18.4367 15.7158 21.8572 17.6513Z" fill="#B1B9B7"/>
</svg>
