<svg width="26" height="33" viewBox="0 0 26 33" fill="none" xmlns="http://www.w3.org/2000/svg">
<path d="M15.3853 31.7025C19.2632 31.5308 22.8865 28.917 24.3296 23.8431L24.4624 23.3441C25.1926 20.1913 25.1864 17.3829 24.3101 14.5824C23.4306 11.7722 21.6633 8.93087 18.8071 5.73767C16.1742 2.87744 13.722 1.48103 11.4253 1.35681C9.28799 1.24131 7.15916 2.22271 5.01025 4.42126L4.58057 4.87634C2.41535 7.26202 1.28675 10.0507 1.20947 13.2347C1.13198 16.4307 2.11376 20.0558 4.22607 24.0931L4.229 24.099C6.93563 29.4398 11.3662 31.8804 15.3853 31.7025ZM17.8823 26.5453C17.6846 26.7085 17.4168 26.82 17.1099 26.7474C16.8382 26.6831 16.6352 26.4955 16.4878 26.3148C16.3338 26.1262 16.1886 25.8806 16.0464 25.598C15.7623 25.0335 15.4468 24.2328 15.0747 23.2172C14.5513 21.9551 13.8724 20.6405 13.1694 19.5404C12.4553 18.4229 11.754 17.5875 11.2046 17.2172C10.7904 16.9923 10.4389 16.5985 10.1499 16.1361C9.84427 15.6471 9.58117 15.0403 9.37158 14.3656C8.95375 13.0204 8.73264 11.3519 8.84131 9.68298C8.84188 8.81735 8.88257 8.0893 8.95557 7.51208C9.02705 6.94711 9.13596 6.47482 9.30029 6.16248C9.37891 6.01309 9.51328 5.81464 9.74268 5.71814C10.0231 5.60028 10.2861 5.69231 10.4614 5.82947C10.6179 5.9519 10.7349 6.12783 10.8267 6.30115C10.9206 6.47869 11.0086 6.69542 11.0923 6.94568C11.389 7.7417 12.1584 9.04157 13.1714 10.4896C14.1761 11.9259 15.3917 13.469 16.5513 14.7416C19.3887 17.8165 20.3768 21.0186 19.2192 23.8461H19.2202C18.9001 24.7584 18.6195 25.4692 18.3511 25.9427C18.2182 26.1772 18.066 26.3936 17.8823 26.5453Z" fill="#B1B9B7" stroke="#B1B9B7"/>
</svg>
