<svg width="31" height="42" viewBox="0 0 31 42" fill="none" xmlns="http://www.w3.org/2000/svg">
<path d="M9.29998 2.81141C9.01212 2.89938 8.56927 3.13395 8.32569 3.36851C8.08212 3.60308 7.72784 3.779 7.55069 3.779C7.04141 3.779 4.95998 6.18332 4.22927 7.62004C3.23284 9.64318 2.87855 11.2265 2.72355 14.3638C2.54641 18.1462 3.01141 20.8438 4.56141 25.066C5.55784 27.7928 6.04498 28.7311 7.63927 30.9888C9.29998 33.3344 11.4921 35.6215 13.2857 36.853C14.5921 37.7912 16.9836 38.7002 19.1093 39.1107C20.15 39.2866 23.0286 38.6415 24.025 38.0258C25.3536 37.1462 26.8371 35.5042 27.5014 34.1848C28.675 31.7804 28.7857 31.4579 29.14 28.907C29.45 26.8545 29.45 26.1215 29.2285 23.8638C28.9628 21.3422 27.8335 16.8854 27.0364 15.2141C26.1728 13.3962 24.0914 9.96571 23.1171 8.76355C20.8586 5.97807 17.6036 3.6324 14.9464 2.87006C14.0386 2.63549 10.2743 2.57685 9.29998 2.81141ZM11.0493 11.1092C12.8428 14.9796 13.7507 15.7712 18.2014 17.2666C19.22 17.6185 20.9693 18.8499 21.6778 19.7002C23.1836 21.5475 24.1357 24.89 24.1357 28.2619C24.1357 29.5521 24.0471 30.7835 23.9364 30.9888C23.6264 31.6632 22.94 31.2527 22.6964 30.2558C22.3421 28.8484 21.0578 26.3561 19.9064 24.8607C18.7771 23.3947 17.4043 22.4271 16.0314 22.1046C13.6621 21.5475 11.2707 19.1725 10.1636 16.3283C9.60998 14.8916 8.85712 10.6108 9.03427 9.93639C9.16712 9.43793 9.52141 9.05676 9.85355 9.05676C9.98641 9.05676 10.5178 9.99503 11.0493 11.1092Z" fill="#08B576" fill-opacity="0.4"/>
</svg>
