<svg width="25" height="35" viewBox="0 0 25 35" fill="none" xmlns="http://www.w3.org/2000/svg">
<path d="M6.19171 0.724651C5.92215 0.805962 5.50744 1.02279 5.27935 1.23961C5.05126 1.45644 4.7195 1.61906 4.55362 1.61906C4.0767 1.61906 2.12758 3.84152 1.44331 5.16958C0.510217 7.03971 0.178451 8.50328 0.0333034 11.4033C-0.13258 14.8997 0.302863 17.3931 1.75434 21.296C2.68743 23.8166 3.14361 24.6839 4.63656 26.7709C6.19171 28.9391 8.24451 31.0532 9.92408 32.1915C11.1475 33.0588 13.3869 33.899 15.3775 34.2785C16.352 34.4411 19.0476 33.8448 19.9807 33.2757C21.2249 32.4626 22.6141 30.9448 23.2362 29.7251C24.3352 27.5027 24.4388 27.2045 24.7706 24.8465C25.0609 22.9493 25.0609 22.2717 24.8535 20.1848C24.6047 17.8539 23.5472 13.7342 22.8007 12.1893C21.9921 10.5089 20.0429 7.33784 19.1306 6.22661C17.0156 3.6518 13.9675 1.48354 11.4792 0.778858C10.6291 0.562031 7.10407 0.507824 6.19171 0.724651ZM7.82981 8.39487C9.50937 11.9725 10.3595 12.7043 14.5273 14.0866C15.4812 14.4118 17.1193 15.5501 17.7828 16.3361C19.1928 18.0436 20.0844 21.1334 20.0844 24.2503C20.0844 25.4428 20.0015 26.5811 19.8978 26.7709C19.6075 27.3942 18.9647 27.0148 18.7366 26.0933C18.4048 24.7923 17.2022 22.4886 16.124 21.1063C15.0665 19.7511 13.7809 18.8567 12.4953 18.5586C10.2766 18.0436 8.03716 15.8483 7.00039 13.2192C6.48201 11.8912 5.777 7.93411 5.94289 7.31074C6.0673 6.84999 6.39906 6.49764 6.71009 6.49764C6.83451 6.49764 7.33216 7.36495 7.82981 8.39487Z" fill="#08B576" fill-opacity="0.4"/>
</svg>
