<svg width="28" height="32" viewBox="0 0 28 32" fill="none" xmlns="http://www.w3.org/2000/svg">
<path d="M7.44986 1.01822C7.16484 1.09128 6.72635 1.28612 6.48518 1.48096C6.24401 1.6758 5.89321 1.82192 5.71781 1.82192C5.21354 1.82192 3.15262 3.81901 2.42911 5.01239C1.4425 6.69287 1.0917 8.00802 0.938229 10.614C0.762831 13.7557 1.22325 15.9964 2.75798 19.5034C3.74459 21.7684 4.22693 22.5478 5.80551 24.4231C7.44986 26.3715 9.62041 28.2711 11.3963 29.294C12.6899 30.0734 15.0577 30.8284 17.1625 31.1694C18.193 31.3155 21.0432 30.7797 22.0298 30.2682C23.3453 29.5376 24.8142 28.1737 25.472 27.0778C26.634 25.0807 26.7436 24.8128 27.0944 22.6939C27.4013 20.9891 27.4013 20.3802 27.1821 18.5049C26.919 16.4104 25.8008 12.7085 25.0115 11.3203C24.1565 9.81027 22.0956 6.96077 21.1309 5.96222C18.8946 3.64853 15.6716 1.70015 13.0407 1.06693C12.1418 0.872091 8.41455 0.823381 7.44986 1.01822ZM9.18192 7.9106C10.9578 11.1254 11.8567 11.783 16.2636 13.0251C17.2721 13.3173 19.0042 14.3402 19.7058 15.0465C21.1967 16.5809 22.1394 19.3573 22.1394 22.1581C22.1394 23.2297 22.0517 24.2526 21.9421 24.4231C21.6351 24.9833 20.9555 24.6423 20.7143 23.8142C20.3635 22.6452 19.0919 20.5751 17.9518 19.333C16.8336 18.1152 15.4743 17.3115 14.115 17.0436C11.769 16.5809 9.40116 14.6081 8.30493 12.2457C7.75681 11.0524 7.01137 7.49657 7.18677 6.93641C7.31832 6.52238 7.66911 6.20577 7.99798 6.20577C8.12953 6.20577 8.65572 6.98512 9.18192 7.9106Z" fill="#08B576" fill-opacity="0.4"/>
</svg>
