<svg width="28" height="31" viewBox="0 0 28 31" fill="none" xmlns="http://www.w3.org/2000/svg">
<path d="M7.26255 0.515594C6.97753 0.588659 6.53903 0.783497 6.29786 0.978334C6.05669 1.17317 5.70589 1.3193 5.5305 1.3193C5.02623 1.3193 2.96531 3.31639 2.24179 4.50977C1.25518 6.19024 0.904385 7.5054 0.750912 10.1114C0.575514 13.2531 1.03593 15.4937 2.57066 19.0008C3.55727 21.2658 4.03962 22.0452 5.6182 23.9205C7.26255 25.8688 9.43309 27.7685 11.209 28.7914C12.5026 29.5708 14.8704 30.3258 16.9752 30.6667C18.0056 30.8129 20.8559 30.2771 21.8425 29.7656C23.158 29.035 24.6269 27.6711 25.2846 26.5751C26.4467 24.578 26.5563 24.3101 26.9071 22.1913C27.214 20.4865 27.214 19.8776 26.9948 18.0023C26.7317 15.9078 25.6135 12.2059 24.8242 10.8176C23.9692 9.30765 21.9082 6.45815 20.9436 5.4596C18.7072 3.1459 15.4843 1.19753 12.8533 0.564304C11.9544 0.369467 8.22723 0.320757 7.26255 0.515594ZM8.9946 7.40798C10.7705 10.6228 11.6694 11.2804 16.0763 12.5225C17.0848 12.8147 18.8169 13.8376 19.5185 14.5439C21.0093 16.0783 21.9521 18.8547 21.9521 21.6555C21.9521 22.7271 21.8644 23.75 21.7548 23.9205C21.4478 24.4806 20.7682 24.1397 20.527 23.3116C20.1762 22.1426 18.9046 20.0724 17.7645 18.8303C16.6463 17.6126 15.287 16.8089 13.9277 16.541C11.5817 16.0783 9.21385 14.1055 8.11761 11.7431C7.56949 10.5497 6.82405 6.99395 6.99945 6.43379C7.131 6.01976 7.48179 5.70315 7.81066 5.70315C7.94221 5.70315 8.46841 6.4825 8.9946 7.40798Z" fill="#08B576" fill-opacity="0.4"/>
</svg>
