<svg width="390" height="209" viewBox="0 0 390 209" fill="none" xmlns="http://www.w3.org/2000/svg">
<path d="M67 2.00001C67 0.895436 67.8954 0 69 0H376C383.732 0 390 6.26801 390 14V195C390 202.732 383.732 209 376 209H69C67.8954 209 67 208.105 67 207V2.00001Z" fill="#0B4539"/>
<path d="M11.8122 30.805C10.2522 31.6717 8.7389 32.105 7.27223 32.105C5.27223 32.105 3.77223 31.325 2.77223 29.765C2.02557 28.6183 1.65223 27.2183 1.65223 25.565C1.65223 23.6317 2.21223 22.0317 3.33223 20.765C4.38557 19.565 5.72557 18.965 7.35223 18.965C8.84557 18.965 10.1722 19.505 11.3322 20.585L10.3122 22.245C9.35223 21.5517 8.4189 21.205 7.51223 21.205C6.60557 21.205 5.85223 21.625 5.25223 22.465C4.66557 23.305 4.37223 24.365 4.37223 25.645C4.37223 27.005 4.75223 28.085 5.51223 28.885C6.1389 29.5517 6.8989 29.885 7.79223 29.885C8.35223 29.885 8.86557 29.7983 9.33223 29.625V27.005H7.07223V24.725H11.8122V30.805ZM13.9366 31.865V19.225C14.1233 19.185 14.6499 19.1317 15.5166 19.065C16.3833 18.9983 17.0433 18.965 17.4966 18.965C20.7233 18.965 22.3366 20.285 22.3366 22.925C22.3366 24.3517 21.7566 25.565 20.5966 26.565C21.0766 27.6717 21.8966 29.4383 23.0566 31.865H20.4166C19.7633 30.4383 19.0566 28.905 18.2966 27.265C18.1499 27.2917 17.9499 27.305 17.6966 27.305C17.1099 27.305 16.7299 27.2517 16.5566 27.145V31.865H13.9366ZM16.5566 21.205V25.025C16.9566 25.145 17.3899 25.205 17.8566 25.205C19.0033 25.205 19.5766 24.445 19.5766 22.925C19.5766 21.685 18.9833 21.065 17.7966 21.065C17.1166 21.065 16.7033 21.1117 16.5566 21.205ZM24.1244 19.205H32.4044V21.305H26.7444V24.285H31.4644V26.385H26.7444V29.765H32.6644V31.865H24.1244V19.205ZM34.2416 19.205H42.5216V21.305H36.8616V24.285H41.5816V26.385H36.8616V29.765H42.7816V31.865H34.2416V19.205ZM47.2588 23.385V31.865H44.6788V19.205H46.8588C48.9921 21.9783 51.1121 24.8917 53.2188 27.945V19.205H55.8388V31.865H53.5988C52.3455 30.385 50.2321 27.5583 47.2588 23.385Z" fill="#0B4539"/>
<path d="M347.327 122.464C350.532 121.807 362.916 121.971 365.903 122.628C373.605 124.511 382.832 129.841 390 136.422V172.2C389.386 171.33 388.735 170.529 388.047 169.81C385.716 167.426 379.962 163.973 376.611 162.987C361.969 158.795 358.982 156.576 353.082 145.726C351.334 142.603 349.586 139.973 349.148 139.972C348.055 139.972 346.89 141.041 346.453 142.438C345.87 144.328 348.346 156.329 350.167 160.357C353.81 168.33 361.678 174.987 369.472 176.549C373.989 177.453 378.505 180.166 382.22 184.276C385.015 187.369 388.045 191.985 389.912 195.777C389.136 202.774 383.205 208.217 376 208.217H348.151C345.927 206.065 343.786 203.771 341.863 201.455C336.618 195.126 335.016 192.496 331.738 184.852C326.639 173.016 325.108 165.453 325.691 154.85C326.201 146.055 327.367 141.616 330.645 135.945C333.049 131.917 339.896 125.176 341.572 125.176C342.155 125.176 343.32 124.683 344.122 124.026C344.923 123.368 346.38 122.711 347.327 122.464Z" fill="#08B576" fill-opacity="0.4"/>
<path d="M361.3 79.8114C361.012 79.8994 360.569 80.1339 360.326 80.3685C360.082 80.6031 359.728 80.779 359.551 80.779C359.041 80.779 356.96 83.1833 356.229 84.62C355.233 86.6432 354.879 88.2265 354.724 91.3638C354.546 95.1462 355.011 97.8438 356.561 102.066C357.558 104.793 358.045 105.731 359.639 107.989C361.3 110.334 363.492 112.621 365.286 113.853C366.592 114.791 368.984 115.7 371.109 116.111C372.15 116.287 375.029 115.642 376.025 115.026C377.354 114.146 378.837 112.504 379.501 111.185C380.675 108.78 380.786 108.458 381.14 105.907C381.45 103.855 381.45 103.122 381.229 100.864C380.963 98.3422 379.834 93.8854 379.036 92.2141C378.173 90.3962 376.091 86.9657 375.117 85.7636C372.859 82.9781 369.604 80.6324 366.946 79.8701C366.039 79.6355 362.274 79.5768 361.3 79.8114ZM363.049 88.1092C364.843 91.9796 365.751 92.7712 370.201 94.2666C371.22 94.6185 372.969 95.8499 373.678 96.7002C375.184 98.5475 376.136 101.89 376.136 105.262C376.136 106.552 376.047 107.784 375.936 107.989C375.626 108.663 374.94 108.253 374.696 107.256C374.342 105.848 373.058 103.356 371.906 101.861C370.777 100.395 369.404 99.4271 368.031 99.1046C365.662 98.5475 363.271 96.1725 362.164 93.3283C361.61 91.8916 360.857 87.6108 361.034 86.9364C361.167 86.4379 361.521 86.0568 361.854 86.0568C361.986 86.0568 362.518 86.995 363.049 88.1092Z" fill="#08B576" fill-opacity="0.4"/>
<path d="M293.263 167.516C292.978 167.589 292.539 167.783 292.298 167.978C292.057 168.173 291.706 168.319 291.53 168.319C291.026 168.319 288.965 170.316 288.242 171.51C287.255 173.19 286.904 174.505 286.751 177.111C286.576 180.253 287.036 182.494 288.571 186.001C289.557 188.266 290.04 189.045 291.618 190.92C293.263 192.869 295.433 194.769 297.209 195.791C298.503 196.571 300.87 197.326 302.975 197.667C304.006 197.813 306.856 197.277 307.842 196.766C309.158 196.035 310.627 194.671 311.285 193.575C312.447 191.578 312.556 191.31 312.907 189.191C313.214 187.486 313.214 186.878 312.995 185.002C312.732 182.908 311.614 179.206 310.824 177.818C309.969 176.308 307.908 173.458 306.944 172.46C304.707 170.146 301.484 168.198 298.853 167.564C297.954 167.369 294.227 167.321 293.263 167.516ZM294.995 174.408C296.77 177.623 297.669 178.28 302.076 179.522C303.085 179.815 304.817 180.838 305.518 181.544C307.009 183.078 307.952 185.855 307.952 188.655C307.952 189.727 307.864 190.75 307.755 190.92C307.448 191.481 306.768 191.14 306.527 190.312C306.176 189.143 304.905 187.072 303.764 185.83C302.646 184.613 301.287 183.809 299.928 183.541C297.582 183.078 295.214 181.106 294.118 178.743C293.569 177.55 292.824 173.994 292.999 173.434C293.131 173.02 293.482 172.703 293.811 172.703C293.942 172.703 294.468 173.482 294.995 174.408Z" fill="#08B576" fill-opacity="0.4"/>
<path d="M274.45 117.018C274.165 117.091 273.726 117.286 273.485 117.481C273.244 117.676 272.893 117.822 272.718 117.822C272.214 117.822 270.153 119.819 269.429 121.012C268.442 122.693 268.092 124.008 267.938 126.614C267.763 129.756 268.223 131.996 269.758 135.503C270.745 137.768 271.227 138.548 272.806 140.423C274.45 142.371 276.62 144.271 278.396 145.294C279.69 146.073 282.058 146.828 284.163 147.169C285.193 147.315 288.043 146.78 289.03 146.268C290.345 145.538 291.814 144.174 292.472 143.078C293.634 141.081 293.744 140.813 294.094 138.694C294.401 136.989 294.401 136.38 294.182 134.505C293.919 132.41 292.801 128.708 292.012 127.32C291.156 125.81 289.096 122.961 288.131 121.962C285.895 119.649 282.672 117.7 280.041 117.067C279.142 116.872 275.415 116.823 274.45 117.018ZM276.182 123.911C277.958 127.125 278.857 127.783 283.264 129.025C284.272 129.317 286.004 130.34 286.706 131.047C288.197 132.581 289.139 135.357 289.139 138.158C289.139 139.23 289.052 140.253 288.942 140.423C288.635 140.983 287.955 140.642 287.714 139.814C287.364 138.645 286.092 136.575 284.952 135.333C283.834 134.115 282.474 133.312 281.115 133.044C278.769 132.581 276.401 130.608 275.305 128.246C274.757 127.052 274.011 123.497 274.187 122.936C274.318 122.522 274.669 122.206 274.998 122.206C275.13 122.206 275.656 122.985 276.182 123.911Z" fill="#08B576" fill-opacity="0.4"/>
</svg>
