<svg width="19" height="23" viewBox="0 0 19 23" fill="none" xmlns="http://www.w3.org/2000/svg">
<path d="M3.65466 1.49133C2.03167 2.62424 0.408691 6.43492 0.408691 8.90671C0.408691 12.3054 4.03653 18.6909 7.09156 20.5447C17.8796 27.4452 23.3214 11.4815 13.2016 2.83022C10.7194 0.667398 5.65952 -0.0535412 3.65466 1.49133ZM7.09156 5.30201C7.09156 6.12594 8.81001 7.97979 10.9103 9.42167C14.0608 11.5845 14.7291 12.6144 14.7291 15.3952C14.6337 18.4849 14.6337 18.5879 13.2971 16.6311C12.5333 15.4982 11.5786 14.1593 11.0058 13.7473C6.42327 9.31867 5.18217 7.67081 5.18217 5.81697C5.18217 4.68406 5.65952 3.75714 6.13686 3.75714C6.70968 3.75714 7.09156 4.47808 7.09156 5.30201Z" fill="#FBB607"/>
</svg>
