<svg width="19" height="22" viewBox="0 0 19 22" fill="none" xmlns="http://www.w3.org/2000/svg">
<path d="M3.89342 1.00314C2.27044 2.13604 0.647461 5.94672 0.647461 8.41852C0.647461 11.8172 4.2753 18.2027 7.33033 20.0565C18.1184 26.957 23.5601 10.9933 13.4404 2.34203C10.9582 0.179206 5.89829 -0.541734 3.89342 1.00314ZM7.33033 4.81382C7.33033 5.63775 9.04878 7.49159 11.1491 8.93347C14.2996 11.0963 14.9679 12.1262 14.9679 14.907C14.8724 17.9967 14.8724 18.0997 13.5358 16.1429C12.7721 15.01 11.8174 13.6711 11.2446 13.2591C6.66204 8.83048 5.42094 7.18262 5.42094 5.32878C5.42094 4.19587 5.89829 3.26895 6.37563 3.26895C6.94845 3.26895 7.33033 3.98989 7.33033 4.81382Z" fill="#017449"/>
</svg>
