<svg width="32" height="40" viewBox="0 0 32 40" fill="none" xmlns="http://www.w3.org/2000/svg">
<g clip-path="url(#clip0_832_682)">
<path fill-rule="evenodd" clip-rule="evenodd" d="M0.962917 18.2409H3.94589V17.891V12.0824C3.94589 8.76042 5.33666 5.73991 7.57448 3.55143V3.5485C9.81329 1.3597 12.9035 0 16.3037 0C19.7012 0 22.7907 1.3597 25.0295 3.5485L25.0328 3.55143C27.2707 5.73991 28.6614 8.76042 28.6614 12.0824V17.891V18.2409H31.0374C31.5668 18.2409 32.0003 18.6647 32.0003 19.182V39.0589C32.0003 39.5762 31.5668 40 31.0374 40H0.962917C0.433512 40 0 39.5762 0 39.0589V19.182C0 18.6647 0.433512 18.2409 0.962917 18.2409ZM8.74716 18.2409H23.8592V17.891V12.0153C23.8592 9.98405 23.0088 8.13607 21.641 6.7972L21.6393 6.7985C20.2705 5.45931 18.3807 4.6276 16.3037 4.6276C14.2257 4.6276 12.3358 5.45898 10.9653 6.7972C9.5972 8.13607 8.74716 9.98405 8.74716 12.0153V17.8913V18.2409ZM16.3646 29.1172L17.8899 35.9984L13.7089 36.0156L14.9359 29.042C13.7935 28.6839 12.9654 27.6374 12.9654 26.4017C12.9654 24.8714 14.234 23.6312 15.7999 23.6312C17.3641 23.6312 18.6337 24.8714 18.6337 26.4017C18.6337 27.7428 17.6588 28.8617 16.3646 29.1172Z" fill="white"/>
</g>
<defs>
<clipPath id="clip0_832_682">
<rect width="32" height="40" fill="white"/>
</clipPath>
</defs>
</svg>
